:SAMPLES-PER-SECOND 30
:FULLY-SPECIFIED
:DEGREES
863
root  -32.2086 14.7164 7.08377 6.18582 -76.9932 -105.192
RightUpLeg  20.4082 13.1659 -24.802
RightLeg  116.803 -7.08845 13.3562
RightFoot  -34.188 0.234184 2.30712
RightToes  3.49245e-010 0 -3.6325e-017
Spine  138.117 -18.9888 2.85997
Spine1  13.2578 -9.05067 10.1054
HEad  -38.8704 1.77658 -13.0936
LeftShoulder1  0.172248 -3.49958 6.83875
LeftArm  -67.8786 -21.9151 -16.2821
LeftForeArm  13.2928 -74.7151 -48.8063
LeftHand  -0.233123 0.276103 5.307
RightShoulder  -0.257135 0.434838 -17.2845
RightArm  -68.8313 23.0776 10.0626
RightForeArm  38.5298 77.4409 100.99
RightHand  -0.674928 2.81558 -9.75962
LeftUpLeg  1.90629 -19.7735 5.92096
LeftLeg  120.56 -1.84629 2.37186
LeftFoot  -22.6834 0.183548 0.482652
LeftToes  -2.21735e-009 9.83027e-011 -4.04511e-011
864
root  -32.8779 15.4689 7.39938 4.31874 -74.9711 -83.616
RightUpLeg  6.04184 5.98489 -35.063
RightLeg  117.446 -8.81785 15.9937
RightFoot  -37.1893 0.374672 2.74437
RightToes  3.49245e-010 0 -3.6325e-017
Spine  120.937 -20.5851 5.42208
Spine1  8.45712 -9.99521 10.6116
HEad  -39.801 1.25757 -12.7477
LeftShoulder1  0.175728 -3.63505 6.84128
LeftArm  -67.7141 -23.1763 -15.5037
LeftForeArm  13.0382 -74.5967 -48.2211
LeftHand  -0.244761 0.245967 5.54089
RightShoulder  -0.21354 0.432151 -16.019
RightArm  -67.6933 22.7245 9.99016
RightForeArm  37.829 77.4634 100.397
RightHand  -0.670119 2.55462 -9.99325
LeftUpLeg  -19.145 -18.96 6.0924
LeftLeg  122.989 -2.33251 2.83249
LeftFoot  -23.8493 0.137855 -0.052684
LeftToes  -2.21735e-009 9.83027e-011 -4.04511e-011
865
root  -33.8059 16.4459 7.63956 -16.7838 -68.7849 -51.9331
RightUpLeg  6.86646 -0.367532 -47.0025
RightLeg  114.687 -10.0843 19.907
RightFoot  -39.8363 0.50919 3.07832
RightToes  3.49245e-010 0 -3.6325e-017
Spine  109.429 -27.3219 7.7995
Spine1  5.11878 -17.4672 10.7143
HEad  -40.5682 0.790999 -12.5176
LeftShoulder1  0.171115 -4.10715 7.10672
LeftArm  -67.2615 -23.7263 -14.8393
LeftForeArm  13.7686 -74.7169 -48.6944
LeftHand  -0.264676 0.201059 6.01304
RightShoulder  -0.173895 0.5725 -14.678
RightArm  -66.1968 21.806 10.5072
RightForeArm  39.1813 77.4492 101.04
RightHand  -0.660302 2.97852 -9.37195
LeftUpLeg  -27.9601 -22.009 -2.18939
LeftLeg  122.658 -3.49528 4.54144
LeftFoot  -24.3137 0.142285 -0.0413699
LeftToes  -2.21735e-009 9.83027e-011 -4.04511e-011
866
root  -34.5858 17.7453 7.42785 4.12225 -68.9043 -52.8036
RightUpLeg  -6.02035 -14.8842 -42.4534
RightLeg  115.651 -8.88935 17.1593
RightFoot  -41.8572 0.726004 3.71788
RightToes  3.49245e-010 0 -3.6325e-017
Spine  94.7926 -20.4943 10.2002
Spine1  2.28306 -10.6587 11.9634
HEad  -40.9533 0.146745 -11.641
LeftShoulder1  0.166957 -4.09219 7.13408
LeftArm  -66.4142 -25.6271 -13.8925
LeftForeArm  13.9064 -74.6387 -48.2276
LeftHand  -0.260115 1.1708 7.07852
RightShoulder  -0.120815 0.790134 -12.9895
RightArm  -63.8127 20.6388 11.3096
RightForeArm  41.4983 77.3267 103.582
RightHand  -0.68969 2.93595 -9.83523
LeftUpLeg  -48.7917 -20.6112 9.37799
LeftLeg  122.096 -1.47922 1.65892
LeftFoot  -25.3594 0.168471 0.146148
LeftToes  -2.21735e-009 9.83027e-011 -4.04511e-011
867
root  -35.2883 18.7358 7.15548 10.6965 -68.9569 -48.9545
RightUpLeg  -12.8243 -21.4756 -38.1061
RightLeg  115.658 -7.04249 13.9238
RightFoot  -42.8597 0.96177 4.44988
RightToes  3.49245e-010 0 -3.6325e-017
Spine  86.2834 -16.244 10.2019
Spine1  1.42319 -8.72526 11.9803
HEad  -40.6261 -0.285126 -9.91464
LeftShoulder1  0.171994 -3.84637 6.97569
LeftArm  -64.7225 -28.4039 -14.4912
LeftForeArm  14.5332 -74.6251 -47.9966
LeftHand  -0.254997 0.563165 6.12039
RightShoulder  -0.033843 1.01947 -10.6201
RightArm  -60.7266 19.029 11.9221
RightForeArm  44.3162 77.2485 105.312
RightHand  -0.65523 3.43077 -8.85268
LeftUpLeg  -57.0792 -18.0531 13.4097
LeftLeg  120.31 -0.295805 -0.0515491
LeftFoot  -26.64 0.0331835 -0.950987
LeftToes  -2.21735e-009 9.83027e-011 -4.04511e-011
868
root  -36.2702 19.6473 7.26092 14.2359 -65.9503 -39.1917
RightUpLeg  -19.4743 -31.5287 -36.8396
RightLeg  115.118 -5.53404 11.4253
RightFoot  -42.6627 1.33779 5.81418
RightToes  3.49245e-010 0 -3.6325e-017
Spine  73.8428 -16.8248 12.1434
Spine1  -0.529389 -9.8673 9.05335
HEad  -39.8213 -0.988817 -7.75173
LeftShoulder1  0.213837 -4.47701 6.59105
LeftArm  -62.6354 -31.0566 -14.1878
LeftForeArm  13.8955 -74.3144 -46.5325
LeftHand  -0.272229 0.553467 6.53095
RightShoulder  0.076469 1.28763 -7.8735
RightArm  -57.2979 16.9788 12.9054
RightForeArm  47.6609 77.1082 107.772
RightHand  -0.67045 3.65108 -8.85653
LeftUpLeg  -68.8687 -18.064 14.7076
LeftLeg  118.749 0.0858222 -0.706312
LeftFoot  -27.2248 -0.07919 -1.74022
LeftToes  -2.21735e-009 9.83027e-011 -4.04511e-011
869
root  -36.9093 20.6503 7.03526 16.8792 -64.7112 -36.4156
RightUpLeg  -23.1114 -36.1096 -32.7536
RightLeg  114.452 -3.34308 7.50266
RightFoot  -39.642 1.7222 7.95804
RightToes  3.49245e-010 0 -3.6325e-017
Spine  68.8493 -14.7007 11.5889
Spine1  -0.666717 -9.1698 8.99265
HEad  -38.3883 -1.16947 -5.14424
LeftShoulder1  0.267222 -5.02371 6.0427
LeftArm  -60.9671 -33.5636 -13.8895
LeftForeArm  12.7005 -73.8413 -44.6025
LeftHand  -0.302244 -0.0199855 6.54117
RightShoulder  0.209359 1.10563 -4.46731
RightArm  -54.1075 16.3837 12.6662
RightForeArm  46.2159 77.1588 106.871
RightHand  -0.717905 4.35636 -8.80344
LeftUpLeg  -71.152 -16.8088 16.5421
LeftLeg  116.129 0.978724 -2.4393
LeftFoot  -28.3378 -0.110563 -1.88385
LeftToes  -2.21735e-009 9.83027e-011 -4.04511e-011
870
root  -37.3747 21.7731 6.74114 19.1798 -65.1812 -36.6647
RightUpLeg  -27.0896 -36.2203 -28.6551
RightLeg  113.905 -2.38662 5.72779
RightFoot  -31.7171 1.61861 10.3415
RightToes  3.49245e-010 0 -3.6325e-017
Spine  67.6697 -12.4942 10.3241
Spine1  -0.933124 -7.50814 7.29782
HEad  -36.555 -1.64948 -1.57569
LeftShoulder1  0.27182 -6.58825 6.59434
LeftArm  -59.3141 -34.96 -11.9628
LeftForeArm  7.94128 -72.4826 -40.2953
LeftHand  -0.273144 0.149057 6.088
RightShoulder  0.328027 0.792195 -0.947315
RightArm  -50.9227 15.208 13.1784
RightForeArm  47.4382 77.0487 108.348
RightHand  -0.793952 4.86549 -9.27718
LeftUpLeg  -68.9313 -14.4209 17.9623
LeftLeg  112.971 1.67014 -4.22469
LeftFoot  -29.3974 -0.059263 -1.48949
LeftToes  -2.21735e-009 9.83027e-011 -4.04511e-011
871
root  -37.678 22.7892 6.58751 20.4348 -65.5186 -39.0749
RightUpLeg  -29.3268 -35.0563 -26.3923
RightLeg  113.483 -1.54065 4.07572
RightFoot  -19.0922 0.591635 8.41761
RightToes  3.49245e-010 0 -3.6325e-017
Spine  69.8835 -12.2493 10.0498
Spine1  -1.72284 -6.11724 4.02874
HEad  -34.8552 -2.52719 0.734493
LeftShoulder1  0.390971 -8.20566 5.81087
LeftArm  -57.8988 -35.736 -8.37513
LeftForeArm  3.9594 -71.2054 -36.9357
LeftHand  -0.262569 0.318557 6.02786
RightShoulder  0.409666 0.642039 1.64172
RightArm  -48.8867 13.5105 13.6116
RightForeArm  52.0926 76.6963 112.637
RightHand  -0.770584 5.41572 -8.57655
LeftUpLeg  -63.8312 -13.1488 18.9113
LeftLeg  110.082 1.86896 -5.33779
LeftFoot  -30.4824 -0.00693768 -1.1284
LeftToes  -2.21735e-009 9.83027e-011 -4.04511e-011
872
root  -38.066 23.3813 6.37073 26.5345 -64.5484 -42.3533
RightUpLeg  -38.0182 -37.3731 -19.9644
RightLeg  113.59 -0.725567 2.36749
RightFoot  -9.19642 -0.150353 0.974507
RightToes  3.49245e-010 0 -3.6325e-017
Spine  67.8273 -10.796 10.6358
Spine1  -1.60268 -4.70811 5.15082
HEad  -35.4005 -2.08726 1.14852
LeftShoulder1  0.431722 -7.47034 5.15581
LeftArm  -57.3329 -36.0027 -8.98805
LeftForeArm  6.13307 -72.1157 -39.3648
LeftHand  -0.28459 0.0466227 6.23285
RightShoulder  0.428158 0.464502 2.67706
RightArm  -48.6419 12.988 12.5752
RightForeArm  55.8131 76.2083 117.08
RightHand  -0.816888 4.86784 -9.51526
LeftUpLeg  -65.3665 -11.2247 22.4148
LeftLeg  108.464 2.34995 -7.04122
LeftFoot  -30.6955 0.00226375 -1.07149
LeftToes  -2.21735e-009 9.83027e-011 -4.04511e-011
873
root  -38.4695 23.6195 6.34695 26.2197 -62.768 -38.4048
RightUpLeg  -45.259 -41.3949 -18.3744
RightLeg  112.423 -2.18359 5.65946
RightFoot  -11.4119 -0.0764059 2.37208
RightToes  3.49245e-010 0 -3.6325e-017
Spine  64.2907 -11.1514 11.1998
Spine1  -0.824899 -5.63312 5.78502
HEad  -35.9678 -1.30761 1.38054
LeftShoulder1  0.338504 -7.16939 6.01879
LeftArm  -57.6695 -34.9557 -10.3765
LeftForeArm  9.32979 -73.159 -42.4521
LeftHand  -0.278084 0.258826 6.31359
RightShoulder  0.428039 0.433315 2.77665
RightArm  -49.0063 12.4482 11.7221
RightForeArm  58.6121 75.8001 120.163
RightHand  -0.819291 5.18179 -9.27533
LeftUpLeg  -68.6152 -11.8183 22.4869
LeftLeg  107.742 2.35728 -7.34331
LeftFoot  -30.663 0.0117207 -1.01651
LeftToes  -2.21735e-009 9.83027e-011 -4.04511e-011
